name analog
datacolumns 19
datarows 23
range 0.0 0.011
endheader
time	ground_force_vx	ground_force_vy	ground_force_vz	ground_force_px	ground_force_py	ground_force_pz	l_ground_force_vx	l_ground_force_vy	l_ground_force_vz	l_ground_force_px	l_ground_force_py	l_ground_force_pz	ground_torque_x	ground_torque_y	ground_torque_z	l_ground_torque_x	l_ground_torque_y	l_ground_torque_z
0.0	-0.0	-0.0	-0.0	-3.348554372787476	20.8142032623291	-301.6264038085937	1.7306560277938845	-20.180713653564453	-468.9231872558594	-0.0	-0.0	-0.0	-0.0	-0.0	-0.0	165666.46875	-25437.060546875	-315.10137939453125
0.0005	-0.0	-0.0	-0.0	-3.165762424468994	21.257198333740234	-300.73114013671875	2.307976484298706	-20.357404708862305	-470.3131103515625	-0.0	-0.0	-0.0	-0.0	-0.0	-0.0	165973.796875	-25230.392578125	-360.4984130859375
0.001	-0.0	-0.0	-0.0	-3.479209899902344	21.12324523925781	-300.7287902832031	1.7742156982421875	-20.66458320617676	-469.259765625	-0.0	-0.0	-0.0	-0.0	-0.0	-0.0	165893.609375	-25000.8046875	-360.40728759765625
0.0015	-0.0	-0.0	-0.0	-3.2564663887023926	21.302165985107425	-300.9160461425781	2.2627530097961426	-20.313987731933597	-472.2349853515625	-0.0	-0.0	-0.0	-0.0	-0.0	-0.0	166038.96875	-25320.390625	-300.1908874511719
0.002	-0.0	-0.0	-0.0	-3.301233053207397	20.902631759643555	-300.7353515625	2.305345058441162	-20.35645294189453	-470.8153381347656	-0.0	-0.0	-0.0	-0.0	-0.0	-0.0	166437.328125	-25261.0859375	-166.4933624267578
0.0025	-0.0	-0.0	-0.0	-3.21127986907959	21.213035583496094	-300.554931640625	2.571622371673584	-20.225666046142575	-469.9658508300781	-0.0	-0.0	-0.0	-0.0	-0.0	-0.0	166330.109375	-25333.560546875	-32.97241973876953
0.003	-0.0	-0.0	-0.0	-3.123178482055664	21.3023681640625	-300.5553283691406	2.749139308929444	-19.9169864654541	-470.8291931152344	-0.0	-0.0	-0.0	-0.0	-0.0	-0.0	166315.015625	-25352.380859375	-62.13248443603516
0.0035	-0.0	-0.0	-0.0	-3.300731897354126	20.67819595336914	-301.2615966796875	2.9744369983673096	-19.651201248168945	-470.4803466796875	-0.0	-0.0	-0.0	-0.0	-0.0	-0.0	166266.625	-25457.48046875	41.4946403503418
0.004	-0.0	-0.0	-0.0	-3.166878223419189	20.499929428100582	-299.84979248046875	3.062098741531372	-19.91559791564941	-471.8771667480469	-0.0	-0.0	-0.0	-0.0	-0.0	-0.0	166249.390625	-25451.826171875	234.4315185546875
0.0045000000000000005	-0.0	-0.0	-0.0	-3.3011062145233154	20.9906063079834	-300.1991577148437	3.458648920059204	-19.607948303222656	-472.04876708984375	-0.0	-0.0	-0.0	-0.0	-0.0	-0.0	166165.5625	-25546.23046875	353.62701416015625
0.005	-0.0	-0.0	-0.0	-3.0340704917907715	20.677949905395508	-298.7938537597656	3.637142181396485	-19.78289031982422	-470.4902648925781	-0.0	-0.0	-0.0	-0.0	-0.0	-0.0	166075.015625	-25594.9765625	175.67681884765625
0.0055	-0.0	-0.0	-0.0	-2.8995418548583984	20.768184661865234	-299.1481628417969	3.592639207839966	-19.82807159423828	-469.7840881347656	-0.0	-0.0	-0.0	-0.0	-0.0	-0.0	166044.40625	-25393.94921875	219.94967651367188
0.006	-0.0	-0.0	-0.0	-3.1223678588867188	20.49999237060547	-297.9083251953125	3.459545373916626	-19.916278839111328	-468.0367126464844	-0.0	-0.0	-0.0	-0.0	-0.0	-0.0	165916.21875	-25343.88671875	279.2393493652344
0.006500000000000001	-0.0	-0.0	-0.0	-2.943279981613159	20.319732666015625	-298.77703857421875	3.6371119022369385	-19.91658592224121	-469.4341735839844	-0.0	-0.0	-0.0	-0.0	-0.0	-0.0	165751.84375	-25479.080078125	145.8480987548828
0.007	-0.0	-0.0	-0.0	-3.077381134033203	20.097000122070312	-298.09295654296875	3.3266870975494385	-20.049152374267575	-469.7833862304688	-0.0	-0.0	-0.0	-0.0	-0.0	-0.0	165792.375	-25670.55859375	86.30913543701172
0.0075	-0.0	-0.0	-0.0	-2.988097667694092	20.23532485961914	-297.1991271972656	2.7053639888763428	-20.181610107421875	-468.73480224609375	-0.0	-0.0	-0.0	-0.0	-0.0	-0.0	165666.921875	-25385.435546875	100.6571807861328
0.008	-0.0	-0.0	-0.0	-3.076219320297241	20.370922088623047	-297.730712890625	2.927785396575928	-20.004697799682617	-468.3914489746094	-0.0	-0.0	-0.0	-0.0	-0.0	-0.0	165590.578125	-25343.244140625	-47.55010986328125
0.0085	-0.0	-0.0	-0.0	-3.1675353050231934	20.011459350585938	-296.4878845214844	2.8828883171081543	-20.04944610595703	-470.65472412109375	-0.0	-0.0	-0.0	-0.0	-0.0	-0.0	165463.484375	-25433.166015625	-47.46733856201172
0.009000000000000001	-0.0	-0.0	-0.0	-2.8987064361572266	20.10080909729004	-298.278076171875	2.7042555809021	-19.783491134643555	-469.4377136230469	-0.0	-0.0	-0.0	-0.0	-0.0	-0.0	165842.453125	-25588.970703125	-18.02895164489746
0.0095	-0.0	-0.0	-0.0	-2.90142822265625	20.054340362548828	-298.4205322265625	2.4832122325897217	-20.26948356628418	-470.3045043945313	-0.0	-0.0	-0.0	-0.0	-0.0	-0.0	165739.234375	-25543.29296875	-151.47193908691406
0.01	-0.0	-0.0	-0.0	-2.8123607635498047	19.747581481933597	-297.5452880859375	2.618144989013672	-20.138126373291016	-470.3164978027344	-0.0	-0.0	-0.0	-0.0	-0.0	-0.0	166028.796875	-25476.720703125	-77.0196304321289
0.0105	-0.0	-0.0	-0.0	-2.854736328125	20.32173156738281	-297.5508728027344	2.837815761566162	-19.961626052856445	-469.2707824707031	-0.0	-0.0	-0.0	-0.0	-0.0	-0.0	165818.859375	-25464.79296875	-17.728614807128906
0.011	-0.0	-0.0	-0.0	-2.98423171043396	20.19062614440918	-297.71014404296875	2.6602988243103027	-19.958660125732425	-470.1346740722656	-0.0	-0.0	-0.0	-0.0	-0.0	-0.0	165787.3125	-25561.951171875	55.80788803100586
